<?xml version="1.0" encoding="UTF-8"?>
<svg id="Layer_1" xmlns="http://www.w3.org/2000/svg" version="1.1" viewBox="0 0 600 600">
  <!-- Generator: Adobe Illustrator 30.4.0, SVG Export Plug-In . SVG Version: 2.1.4 Build 226)  -->
  <defs>
    <style>
      .st0 {
        fill: #8c7aa9;
      }

      .st1 {
        fill: #fff;
      }
    </style>
  </defs>
  <circle class="st0" cx="300" cy="300" r="300"/>
  <path class="st1" d="M474,358c-1,126-130,175-201,174-79-1-116-35-116-35l23-31s38,25,92,25c31,0,125-29,125-124,0-51-46-70-69-71-20,0-42,11-73,29l-17-37c110-67,127-87,127-118,0-29-26-48-49-48s-56,6-117,72l-32-26c79-111,149-106,170-105,47,2,103,27,104,87,0,24-8,52-62,93,46,5,96,46,95,115Z"/>
</svg>