<?xml version="1.0" encoding="UTF-8"?>
<svg id="Layer_2" xmlns="http://www.w3.org/2000/svg" version="1.1" viewBox="0 0 216.22 196.07">
  <!-- Generator: Adobe Illustrator 30.4.0, SVG Export Plug-In . SVG Version: 2.1.4 Build 226)  -->
  <g id="Layer_1-2">
    <g id="common">
      <path d="M84.85,99.71l-3.14-8.72c-10.35-20.78-42.45-27.87-55.84-6.27-7.49,12.09-6.22,28.12,6.8,35.64,1.23.71,3.05,1.74,4.48,1.76-7.42-7.74-11.36-17.69-7.07-28.16,7.71-18.81,33.03-15.75,40.6,1.35,7.97,18.02-4,41.89-24.78,41.81-27.81-.11-46.47-29.48-35.16-54.83,12.65-28.35,52.06-31.03,68.47-4.61,3.96,6.38,6.3,14.52,5.65,22.03Z"/>
      <path d="M111.47,188.16c-27.11-1.79-52.95-16.77-68.04-39.24-.26-.38-1.89-2.77-1.72-2.95,22.48,20.55,56.37,22.86,81.35,5.23,28.48-20.11,36.05-59.21,16.94-88.55,3.57-11.11,2.27-23.07-5.75-31.87-2.48-2.72-5.67-4.53-8.4-6.94-4.61-4.06-9.58-9.98-11.27-15.94,13.04-.96,26.57,1.73,38.5,6.95-2.43,11.63,1.98,22.7,8.88,31.86,2.93,3.89,6.45,6.92,9.57,10.57,18.21,21.36,21.71,52.88,2.88,75.04-11.06,13.02-21.82,17.66-37.04,24.09-13.16,5.56-26.79,15.86-25.89,31.76h0ZM206.48,117.88c4.65-21.03,2.24-39.67-6.82-59.01-8.43-18-23.15-32.68-40.84-41.62-.12,6.95,1.94,14.21,5.44,20.21,4.54,7.77,11.48,11.32,17.1,17.9,20.63,24.2,24.29,63.15.48,86.55-11.6,11.4-22.89,14.86-37.65,20.13-12.34,4.4-24.59,12.95-27.21,26.61,42.46.93,80.39-29.53,89.5-70.76h0ZM45.92,43.88c-1.1,1.47-2.41,3.24-3.36,4.79-.17.27-.99,1.51-.86,1.66,15.9-14.42,37.62-20.25,58.69-15.42,12.04,2.76,22.9,9.26,31.69,17.81.38-7.87-2.37-15.9-7.55-21.82-2.68-3.07-6.24-5.43-9-8.5-3.48-3.87-6.67-8.65-6.95-14.03-24.67,2.29-47.9,15.81-62.67,35.5h0Z"/>
    </g>
  </g>
</svg>