<?xml version="1.0" encoding="UTF-8"?>
<svg id="Layer_2" xmlns="http://www.w3.org/2000/svg" version="1.1" viewBox="0 0 163.74 216.41">
  <!-- Generator: Adobe Illustrator 30.4.0, SVG Export Plug-In . SVG Version: 2.1.4 Build 226)  -->
  <g id="C">
    <path d="M59.76,60.86c-4.17,5.84-8.79,11.38-13.26,16.99,1.13,1.99,3.77,6.6,5.2,9.25-5.96,3.19-11.44,6.48-17.47,10.58-1.59,1.09-3.91,2.96-6.47,5.05-7.13-6.3-14.24-11.87-11.86-22.45,4.32-19.22,33.53-28.35,50.66-30.13.49.45-6.05,9.67-6.8,10.71h0ZM155.67,89.51c-.74.07-.73.73-.92,1.23-1.63,4.17-2.37,6.46-5.32,10.04-11.43,13.84-33.05,21.07-50.08,24.7l-1.65,37.47c18.74-1.87,39.45-12.36,50.99-27.4,5.49-7.16,7.92-12.61,8.44-21.78.47-8.1-.11-16.3-1.46-24.26h0ZM135.72,104.35c-8.18-6.27-16.15-13.8-26.04-17.24.91-1.34,4.56-7.18,5.69-8.79l-13.75-17.46-6.79-10.71c16.73,1.66,39.02,8.1,49.27,22.4,9.77,13.64,3.61,23.16-8.38,31.8ZM65.12,162.47c-20.42-1.92-42.9-15.91-53.67-33.35-7.43-12.02-5.1-28.15-2.86-41.53.73,1.84.94,2.4,1.4,3.63,7.09,18.64,34.74,28.97,52.72,32.87,0,0,2.41,38.38,2.41,38.38ZM106.85,78.7l-12.92,18.75-1.78,38.74-2.47,53.86-2.23,3.63-5.76,9.41c-.2-.23-.76-1.02-1.49-2.1-2.41-3.56-6.75-10.32-6.87-10.94-.48-8.8-.98-17.6-1.49-26.4-.97-16.64-2.02-33.27-3.17-49.89-.4-5.73-.8-11.45-1.22-17.18l-2.46-3.47-10.21-14.4c.08-.11.16-.22.24-.34,2.05-3.02,4.4-5.84,6.61-8.74.52-.68,1.04-1.36,1.53-2.05.75-1.05,2.03-2.79,3.51-4.84,4-5.54,9.45-13.39,9.93-16.44.01-.09.03-.18.03-.26.13-2.06.2-4.06.24-6.03v-.13c.07-3.65.02-7.2-.08-10.75v-.15c-.02-.75-.05-1.5-.07-2.25-.05-1.67-.1-3.34-.16-5.04l-3.13-3.99-8.49-10.77c-.61-.71-.76-1.7-.29-2.29h0s.01-.01.01-.02c.16-.19.38-.33.68-.41.18-.05.38-.07.6-.06,1.6.04,5.66-.01,10.34-.06.29,0,.59-.01.89-.01,1.23-.01,2.49-.02,3.76-.03,1.58.02,3.15.03,4.65.04,4.68.05,8.74.1,10.34.06.22,0,.42.02.6.06,1.22.32,1.22,1.78.4,2.72l-11.62,14.76c-.08,2.47-.16,4.88-.23,7.29-.1,3.65-.37,7.29-.3,11.03h.01c-.01.44-.03.87-.03,1.3.01,1.59.03,3.18.08,4.73.04,1.11.79,2.77,1.83,4.61.53.93,1.13,1.91,1.77,2.88,1.82,2.79,3.86,5.54,4.89,7.05,1.41,2.06,2.89,4.06,4.4,6.05,2.86,3.76,5.8,7.45,8.56,11.27.19.27.38.53.57.8h0ZM86.18,78.22l-5.4,12.73c-1.87-4.41-5.12-12.57-5.12-12.57,0,0,3.73-4.82,5.12-6.64,2.59,2.95,2.81,3.17,5.4,6.48Z"/>
  </g>
</svg>