<?xml version="1.0" encoding="UTF-8"?>
<svg id="Layer_2" xmlns="http://www.w3.org/2000/svg" version="1.1" viewBox="0 0 207.42 237.32">
  <!-- Generator: Adobe Illustrator 30.4.0, SVG Export Plug-In . SVG Version: 2.1.4 Build 226)  -->
  <g id="Layer_2_copy_5">
    <path d="M191.08,115.98c-7.66-.52-7.65,7.26-10.87,12.69-.77,1.29.18,2.53-2.49,1.97,2.34-22.38,4-45.12-2.49-67-7.55-25.47-28.61-47.2-55.51-50.98l11.5,62.99h32.5l-60,68.45-60-68.45h32.5l11.5-62.99c-44.94,7.27-63.54,52.96-60.04,94.53l2.04,23.45c-2.22.55-3.63-3.6-4.38-5.12-2.45-4.99-1.69-9.84-8.77-9.31-12.07.91-5.44,23.33-2.61,30.7,4.03,10.48,12.12,22.34,24.81,21.19,8.84,24.68,30.61,49.78,55.99,58.01,7.73,2.5,10.2,2.5,17.92,0,20.6-6.68,40.12-25.95,50.21-44.79,1.2-2.25,5.18-12.82,5.79-13.21,1.65-1.1,6.84,0,10.31-1.69,5.65-2.74,12.26-13.7,14.49-19.51,2.65-6.89,9.08-30.15-2.4-30.93h0ZM92.71,151.65l-2.98-1c2.24,11.52-6.12,13.27-15.52,13.98-16.75,1.26-29.49-7.52-34.15-23.5.39-3.48,18.15-13.32,22.65-10.48-2.01-6.49-10.68-5.24-15.98-4.01,1.94-2.62,8-3.79,11.04-3.54,6.78.57,15.3,7.21,20.42,11.58,2.01,1.71,16.18,15.08,14.52,16.97ZM133.22,164.63c-9.41-.71-17.76-2.46-15.52-13.98l-2.99,1c-1.66-1.89,12.52-15.26,14.52-16.97,5.13-4.37,13.64-11.01,20.42-11.58,3.05-.25,9.11.92,11.05,3.54-5.31-1.23-13.97-2.48-15.99,4.01,4.51-2.84,22.27,7,22.65,10.48-4.65,15.98-17.39,24.76-34.14,23.5Z"/>
  </g>
</svg>